<svg width="18" height="15" viewBox="0 0 18 15" fill="none" xmlns="http://www.w3.org/2000/svg">
<mask id="path-1-inside-1" fill="white">
<path fill-rule="evenodd" clip-rule="evenodd" d="M1 0C0.447715 0 0 0.447715 0 1V3V15H12.7974C13.0416 15 13.2774 14.9106 13.4603 14.7487L15.6629 12.7985C15.8773 12.6087 16 12.3361 16 12.0498V3C16 2.44772 15.5523 2 15 2H6.27451L5.86687 0.70066C5.73607 0.283724 5.3497 0 4.91273 0H1Z"/>
</mask>
<path fill-rule="evenodd" clip-rule="evenodd" d="M1 0C0.447715 0 0 0.447715 0 1V3V15H12.7974C13.0416 15 13.2774 14.9106 13.4603 14.7487L15.6629 12.7985C15.8773 12.6087 16 12.3361 16 12.0498V3C16 2.44772 15.5523 2 15 2H6.27451L5.86687 0.70066C5.73607 0.283724 5.3497 0 4.91273 0H1Z" fill="#C4C4C4"/>
<path d="M0 15H-1V16H0V15ZM13.4603 14.7487L12.7974 14V14L13.4603 14.7487ZM15.6629 12.7985L15 12.0498H15L15.6629 12.7985ZM6.27451 2L5.32036 2.29934L5.54018 3H6.27451V2ZM5.86687 0.70066L6.82102 0.40132V0.40132L5.86687 0.70066ZM1 1V1V-1C-0.104569 -1 -1 -0.10457 -1 1H1ZM1 3V1H-1V3H1ZM-1 3V15H1V3H-1ZM0 16H12.7974V14H0V16ZM12.7974 16C13.2859 16 13.7575 15.8212 14.1232 15.4974L12.7974 14V16ZM14.1232 15.4974L16.3258 13.5472L15 12.0498L12.7974 14L14.1232 15.4974ZM16.3258 13.5472C16.7545 13.1676 17 12.6224 17 12.0498H15H15L16.3258 13.5472ZM17 12.0498V3H15V12.0498H17ZM17 3C17 1.89543 16.1046 1 15 1V3H17ZM15 1H6.27451V3H15V1ZM4.91273 1L5.32036 2.29934L7.22866 1.70066L6.82102 0.40132L4.91273 1ZM4.91273 1L4.91273 1L6.82102 0.40132C6.55941 -0.432552 5.78667 -1 4.91273 -1V1ZM1 1H4.91273V-1H1V1Z" fill="#212121" mask="url(#path-1-inside-1)"/>
<path d="M17.3933 5.5L15.642 14.5H0.528804L2.88777 5.5H17.3933Z" fill="#64B5F6" stroke="#212121"/>
</svg>
