<svg width="18" height="18" fill="none" xmlns="http://www.w3.org/2000/svg"><path d="M17.5 17.5H.5V.5h14.2929l1.3535 1.35355L17.5 3.20711V17.5z" fill="#fff" stroke="#212121"/><path d="M14.5.5v3h3" stroke="#212121"/><path fill="#64B5F6" d="M4 6h3.5v5H4z"/><path d="M8 9.5v-3H7v4H4.5v1H7v3H3.5v-9h7v4H8z" stroke="#000"/><path d="M9.28125 14.8105c0-.0625.01823-.1145.05469-.1562.03776-.0417.09375-.0625.16797-.0625.07421 0 .1302.0208.16797.0625.03906.0417.05859.0937.05859.1562 0 .0599-.01953.1101-.05859.1504-.03777.0404-.09376.0606-.16797.0606-.07422 0-.13021-.0202-.16797-.0606-.03646-.0403-.05469-.0905-.05469-.1504zM11.5586 14.4395c0-.0977-.0371-.1732-.1113-.2266-.073-.0547-.2012-.1016-.3848-.1406-.1823-.0391-.3275-.086-.4355-.1407-.1068-.0546-.1862-.1198-.2383-.1953-.0508-.0755-.0762-.1653-.0762-.2695 0-.1732.0729-.3197.2187-.4395.1472-.1197.3347-.1796.5626-.1796.2395 0 .4335.0618.582.1855.1497.1237.2246.2819.2246.4746h-.3633c0-.0989-.0423-.1842-.1269-.2558-.0834-.0717-.1888-.1075-.3164-.1075-.1316 0-.2344.0287-.3086.086-.0743.0573-.1114.1321-.1114.2246 0 .0872.0345.153.1035.1972.0691.0443.1934.0866.3731.127.181.0404.3275.0885.4394.1445.112.056.1947.1237.2481.2032.0547.0781.082.1738.082.2871 0 .1888-.0755.3405-.2265.455-.1511.1133-.347.17-.5879.17-.1693 0-.319-.03-.4493-.0899-.1302-.0599-.2324-.1432-.3066-.25-.0729-.1081-.1094-.2246-.1094-.3496h.3614c.0065.1211.0546.2175.1445.2891.0911.0703.2109.1054.3594.1054.1367 0 .2461-.0273.3281-.082.0833-.056.125-.1302.125-.2226zM13.0879 14.5098l.5234-1.6231h.3692L13.2227 15h-.2754l-.7657-2.1133h.3692l.5371 1.6231zM14.2148 13.9258c0-.3294.0762-.5912.2286-.7852.1523-.1953.3541-.2929.6054-.2929.2578 0 .459.0911.6035.2734l.0176-.2344H16v2.0625c0 .2735-.0814.489-.2441.6465-.1615.1576-.3789.2363-.6524.2363-.1523 0-.3014-.0325-.4473-.0976-.1458-.0651-.2571-.1543-.3339-.2676l.1875-.2168c.1549.1914.3444.2871.5683.2871.1758 0 .3125-.0495.4102-.1484.0989-.099.1484-.2383.1484-.418v-.1816c-.1445.1666-.3418.25-.5918.25-.2474 0-.4479-.0996-.6015-.2989-.1524-.1992-.2286-.4707-.2286-.8144zm.3633.041c0 .2383.0489.4258.1465.5625.0977.1354.2344.2031.4102.2031.2278 0 .3951-.1035.5019-.3105v-.9649c-.1107-.2018-.2767-.3027-.498-.3027-.1758 0-.3132.0684-.4121.2051-.099.1367-.1485.3392-.1485.6074z" fill="#212121"/></svg>